<?xml version="1.0" standalone="no"?>
<!DOCTYPE svg PUBLIC "-//W3C//DTD SVG 1.1//EN" "http://www.w3.org/Graphics/SVG/1.1/DTD/svg11.dtd">
<svg t="1703984929277" class="icon" viewBox="0 0 1024 1024" version="1.1"
  xmlns="http://www.w3.org/2000/svg" p-id="1076" xmlns:xlink="http://www.w3.org/1999/xlink"
  width="200" height="200">
  <path
    d="M909.13 405.123l51.643-56.235V236.384h-52.23L734.488 427.631 613.25 561.503l-13.946 15.19V448.446l77.189-84.922-116.06-127.693h-90.48l-174.09 191.246L168.24 561.503l-14.5 15.19V448.446l77.155-84.922L114.87 235.832H63.227v112.504l46.983 51.16v225.008L63.227 675.63v112.538h51.643l174.055-191.246 77.155-85.474 57.995-61.31v128.246l-73.081 83.23 116.06 126.554h90.48l174.054-191.246 77.19-85.474 57.995-61.31v128.246l-74.842 83.23 116.06 126.554h52.195V675.664l-51.643-56.235 0.587-214.306z m-396.854-48.916l40.045 43.841v225.008l-40.045 43.842-44.67-48.916v-214.86l44.67-48.915z"
    fill="#2C2C2C" p-id="1077"></path>
</svg>